<svg width="20" height="20" viewBox="0 0 20 20" fill="none" xmlns="http://www.w3.org/2000/svg">
<g clip-path="url(#clip0_20_790)">
<path d="M19.1663 15.8333C19.1663 16.2754 18.9907 16.6993 18.6782 17.0118C18.3656 17.3244 17.9417 17.5 17.4997 17.5H2.49967C2.05765 17.5 1.63372 17.3244 1.32116 17.0118C1.0086 16.6993 0.833008 16.2754 0.833008 15.8333V6.66667C0.833008 6.22464 1.0086 5.80072 1.32116 5.48816C1.63372 5.17559 2.05765 5 2.49967 5H5.83301L7.49967 2.5H12.4997L14.1663 5H17.4997C17.9417 5 18.3656 5.17559 18.6782 5.48816C18.9907 5.80072 19.1663 6.22464 19.1663 6.66667V15.8333Z" stroke="white" stroke-width="2" stroke-linecap="round" stroke-linejoin="round"/>
<path d="M9.99967 14.1667C11.8406 14.1667 13.333 12.6743 13.333 10.8333C13.333 8.99238 11.8406 7.5 9.99967 7.5C8.15873 7.5 6.66634 8.99238 6.66634 10.8333C6.66634 12.6743 8.15873 14.1667 9.99967 14.1667Z" stroke="white" stroke-width="2" stroke-linecap="round" stroke-linejoin="round"/>
</g>
<defs>
<clipPath id="clip0_20_790">
<rect width="20" height="20" fill="white"/>
</clipPath>
</defs>
</svg>
