<svg width="20" height="20" viewBox="0 0 20 20" fill="none" xmlns="http://www.w3.org/2000/svg">
<g clip-path="url(#clip0_34_22947)">
<path d="M19.1666 15.8333C19.1666 16.2754 18.9911 16.6993 18.6785 17.0118C18.3659 17.3244 17.942 17.5 17.5 17.5H2.49998C2.05795 17.5 1.63403 17.3244 1.32147 17.0118C1.00891 16.6993 0.833313 16.2754 0.833313 15.8333V6.66667C0.833313 6.22464 1.00891 5.80072 1.32147 5.48816C1.63403 5.17559 2.05795 5 2.49998 5H5.83331L7.49998 2.5H12.5L14.1666 5H17.5C17.942 5 18.3659 5.17559 18.6785 5.48816C18.9911 5.80072 19.1666 6.22464 19.1666 6.66667V15.8333Z" stroke="white" stroke-width="2" stroke-linecap="round" stroke-linejoin="round"/>
<path d="M9.99998 14.1667C11.8409 14.1667 13.3333 12.6743 13.3333 10.8333C13.3333 8.99238 11.8409 7.5 9.99998 7.5C8.15903 7.5 6.66665 8.99238 6.66665 10.8333C6.66665 12.6743 8.15903 14.1667 9.99998 14.1667Z" stroke="white" stroke-width="2" stroke-linecap="round" stroke-linejoin="round"/>
</g>
<defs>
<clipPath id="clip0_34_22947">
<rect width="20" height="20" fill="white"/>
</clipPath>
</defs>
</svg>
