<svg width="20" height="20" viewBox="0 0 20 20" fill="none" xmlns="http://www.w3.org/2000/svg">
<g clip-path="url(#clip0_34_20494)">
<path d="M4.16663 12.5001H3.33329C2.89127 12.5001 2.46734 12.3245 2.15478 12.0119C1.84222 11.6994 1.66663 11.2754 1.66663 10.8334V3.33341C1.66663 2.89139 1.84222 2.46746 2.15478 2.1549C2.46734 1.84234 2.89127 1.66675 3.33329 1.66675H10.8333C11.2753 1.66675 11.6992 1.84234 12.0118 2.1549C12.3244 2.46746 12.5 2.89139 12.5 3.33341V4.16675M9.16663 7.50008H16.6666C17.5871 7.50008 18.3333 8.24627 18.3333 9.16675V16.6667C18.3333 17.5872 17.5871 18.3334 16.6666 18.3334H9.16663C8.24615 18.3334 7.49996 17.5872 7.49996 16.6667V9.16675C7.49996 8.24627 8.24615 7.50008 9.16663 7.50008Z" stroke="#444444" stroke-width="2" stroke-linecap="round" stroke-linejoin="round"/>
</g>
<defs>
<clipPath id="clip0_34_20494">
<rect width="20" height="20" fill="white"/>
</clipPath>
</defs>
</svg>
