<svg width="20" height="20" viewBox="0 0 20 20" fill="none" xmlns="http://www.w3.org/2000/svg">
<g clip-path="url(#clip0_34_17900)">
<path d="M4.16602 12.4998H3.33268C2.89065 12.4998 2.46673 12.3242 2.15417 12.0117C1.84161 11.6991 1.66602 11.2752 1.66602 10.8332V3.33317C1.66602 2.89114 1.84161 2.46722 2.15417 2.15466C2.46673 1.8421 2.89065 1.6665 3.33268 1.6665H10.8327C11.2747 1.6665 11.6986 1.8421 12.0112 2.15466C12.3238 2.46722 12.4993 2.89114 12.4993 3.33317V4.1665M9.16602 7.49984H16.666C17.5865 7.49984 18.3327 8.24603 18.3327 9.1665V16.6665C18.3327 17.587 17.5865 18.3332 16.666 18.3332H9.16602C8.24554 18.3332 7.49935 17.587 7.49935 16.6665V9.1665C7.49935 8.24603 8.24554 7.49984 9.16602 7.49984Z" stroke="#444444" stroke-width="2" stroke-linecap="round" stroke-linejoin="round"/>
</g>
<defs>
<clipPath id="clip0_34_17900">
<rect width="20" height="20" fill="white"/>
</clipPath>
</defs>
</svg>
