<svg width="20" height="20" viewBox="0 0 20 20" fill="none" xmlns="http://www.w3.org/2000/svg">
<g clip-path="url(#clip0_34_15327)">
<path d="M4.16675 12.5H3.33341C2.89139 12.5 2.46746 12.3244 2.1549 12.0119C1.84234 11.6993 1.66675 11.2754 1.66675 10.8334V3.33335C1.66675 2.89133 1.84234 2.4674 2.1549 2.15484C2.46746 1.84228 2.89139 1.66669 3.33341 1.66669H10.8334C11.2754 1.66669 11.6994 1.84228 12.0119 2.15484C12.3245 2.4674 12.5001 2.89133 12.5001 3.33335V4.16669M9.16675 7.50002H16.6667C17.5872 7.50002 18.3334 8.24621 18.3334 9.16669V16.6667C18.3334 17.5872 17.5872 18.3334 16.6667 18.3334H9.16675C8.24627 18.3334 7.50008 17.5872 7.50008 16.6667V9.16669C7.50008 8.24621 8.24627 7.50002 9.16675 7.50002Z" stroke="#444444" stroke-width="2" stroke-linecap="round" stroke-linejoin="round"/>
</g>
<defs>
<clipPath id="clip0_34_15327">
<rect width="20" height="20" fill="white"/>
</clipPath>
</defs>
</svg>
