<svg width="20" height="20" viewBox="0 0 20 20" fill="none" xmlns="http://www.w3.org/2000/svg">
<g clip-path="url(#clip0_28_158623)">
<path d="M4.1665 12.5001H3.33317C2.89114 12.5001 2.46722 12.3245 2.15466 12.0119C1.8421 11.6994 1.6665 11.2754 1.6665 10.8334V3.33341C1.6665 2.89139 1.8421 2.46746 2.15466 2.1549C2.46722 1.84234 2.89114 1.66675 3.33317 1.66675H10.8332C11.2752 1.66675 11.6991 1.84234 12.0117 2.1549C12.3242 2.46746 12.4998 2.89139 12.4998 3.33341V4.16675M9.1665 7.50008H16.6665C17.587 7.50008 18.3332 8.24627 18.3332 9.16675V16.6667C18.3332 17.5872 17.587 18.3334 16.6665 18.3334H9.1665C8.24603 18.3334 7.49984 17.5872 7.49984 16.6667V9.16675C7.49984 8.24627 8.24603 7.50008 9.1665 7.50008Z" stroke="#444444" stroke-width="2" stroke-linecap="round" stroke-linejoin="round"/>
</g>
<defs>
<clipPath id="clip0_28_158623">
<rect width="20" height="20" fill="white"/>
</clipPath>
</defs>
</svg>
