<svg width="20" height="20" viewBox="0 0 20 20" fill="none" xmlns="http://www.w3.org/2000/svg">
<g clip-path="url(#clip0_34_15273)">
<path d="M4.16669 12.5H3.33335C2.89133 12.5 2.4674 12.3244 2.15484 12.0118C1.84228 11.6992 1.66669 11.2753 1.66669 10.8333V3.33329C1.66669 2.89127 1.84228 2.46734 2.15484 2.15478C2.4674 1.84222 2.89133 1.66663 3.33335 1.66663H10.8334C11.2754 1.66663 11.6993 1.84222 12.0119 2.15478C12.3244 2.46734 12.5 2.89127 12.5 3.33329V4.16663M9.16669 7.49996H16.6667C17.5872 7.49996 18.3334 8.24615 18.3334 9.16663V16.6666C18.3334 17.5871 17.5872 18.3333 16.6667 18.3333H9.16669C8.24621 18.3333 7.50002 17.5871 7.50002 16.6666V9.16663C7.50002 8.24615 8.24621 7.49996 9.16669 7.49996Z" stroke="#444444" stroke-width="2" stroke-linecap="round" stroke-linejoin="round"/>
</g>
<defs>
<clipPath id="clip0_34_15273">
<rect width="20" height="20" fill="white"/>
</clipPath>
</defs>
</svg>
