<svg width="44" height="43" viewBox="0 0 44 43" fill="none" xmlns="http://www.w3.org/2000/svg">
<path d="M20.1521 43V22.7591H20.0134C17.4078 22.7591 14.9106 22.2785 12.5218 21.3172C10.133 20.3559 8.01565 18.9802 6.16986 17.1901C4.32407 15.4 2.91764 13.3377 1.95056 11.0031C0.983519 8.66858 0.5 6.23513 0.5 3.70278V0H4.29663C6.86961 0 9.34928 0.487497 11.7356 1.46249C14.122 2.43753 16.2371 3.8203 18.0809 5.61081C19.4751 6.96275 20.6213 8.4779 21.5194 10.1563C22.4176 11.8346 23.0449 13.6144 23.4013 15.4957C23.7394 14.9595 24.1065 14.4461 24.5025 13.9557C24.8986 13.4652 25.3363 12.9876 25.8157 12.5227C27.6634 10.7345 29.7871 9.35284 32.1867 8.3778C34.5864 7.40276 37.0877 6.91525 39.6907 6.91525H43.5V10.6181C43.5 13.1489 42.9982 15.5808 41.9946 17.9139C40.991 20.247 39.5695 22.3097 37.7299 24.102C35.8904 25.8944 33.7835 27.2606 31.4093 28.2006C29.0351 29.1406 26.5482 29.6107 23.9488 29.6107H23.8226V43H20.1521ZM20.1975 19.1274C20.1975 17.0398 19.7876 15.0489 18.9677 13.155C18.1478 11.261 16.9878 9.58494 15.4876 8.12666C13.9874 6.66837 12.2622 5.54401 10.3121 4.75358C8.36201 3.96314 6.31482 3.56793 4.1705 3.56793C4.1705 5.68454 4.56405 7.69527 5.35115 9.60012C6.13824 11.5049 7.2819 13.1865 8.7821 14.6448C10.3176 16.1373 12.0652 17.2576 14.0248 18.0055C15.9843 18.7535 18.0419 19.1274 20.1975 19.1274ZM23.8226 26.0427C25.9669 26.0427 28.0141 25.6602 29.9642 24.8951C31.9143 24.13 33.6395 23.0183 35.1397 21.56C36.6399 20.1018 37.7965 18.4202 38.6097 16.5154C39.4229 14.6106 39.8295 12.5998 39.8295 10.4832C37.652 10.4832 35.5835 10.8785 33.6239 11.6689C31.6643 12.4593 29.9344 13.5837 28.4342 15.042C26.9122 16.5215 25.763 18.2029 24.9869 20.0862C24.2107 21.9696 23.8226 23.9551 23.8226 26.0427Z" fill="#1E1E1E"/>
</svg>
