<svg width="20" height="20" viewBox="0 0 20 20" fill="none" xmlns="http://www.w3.org/2000/svg">
<path d="M9.99996 10.8333C10.4602 10.8333 10.8333 10.4602 10.8333 9.99992C10.8333 9.53968 10.4602 9.16659 9.99996 9.16659C9.53972 9.16659 9.16663 9.53968 9.16663 9.99992C9.16663 10.4602 9.53972 10.8333 9.99996 10.8333Z" stroke="#444444" stroke-width="2" stroke-linecap="round" stroke-linejoin="round"/>
<path d="M9.99996 4.99992C10.4602 4.99992 10.8333 4.62682 10.8333 4.16659C10.8333 3.70635 10.4602 3.33325 9.99996 3.33325C9.53972 3.33325 9.16663 3.70635 9.16663 4.16659C9.16663 4.62682 9.53972 4.99992 9.99996 4.99992Z" stroke="#444444" stroke-width="2" stroke-linecap="round" stroke-linejoin="round"/>
<path d="M9.99996 16.6666C10.4602 16.6666 10.8333 16.2935 10.8333 15.8333C10.8333 15.373 10.4602 14.9999 9.99996 14.9999C9.53972 14.9999 9.16663 15.373 9.16663 15.8333C9.16663 16.2935 9.53972 16.6666 9.99996 16.6666Z" stroke="#444444" stroke-width="2" stroke-linecap="round" stroke-linejoin="round"/>
</svg>
