<svg width="20" height="20" viewBox="0 0 20 20" fill="none" xmlns="http://www.w3.org/2000/svg">
<path d="M10.0003 10.833C10.4606 10.833 10.8337 10.4599 10.8337 9.99967C10.8337 9.53944 10.4606 9.16634 10.0003 9.16634C9.54009 9.16634 9.16699 9.53944 9.16699 9.99967C9.16699 10.4599 9.54009 10.833 10.0003 10.833Z" stroke="#444444" stroke-width="2" stroke-linecap="round" stroke-linejoin="round"/>
<path d="M10.0003 4.99967C10.4606 4.99967 10.8337 4.62658 10.8337 4.16634C10.8337 3.7061 10.4606 3.33301 10.0003 3.33301C9.54009 3.33301 9.16699 3.7061 9.16699 4.16634C9.16699 4.62658 9.54009 4.99967 10.0003 4.99967Z" stroke="#444444" stroke-width="2" stroke-linecap="round" stroke-linejoin="round"/>
<path d="M10.0003 16.6663C10.4606 16.6663 10.8337 16.2932 10.8337 15.833C10.8337 15.3728 10.4606 14.9997 10.0003 14.9997C9.54009 14.9997 9.16699 15.3728 9.16699 15.833C9.16699 16.2932 9.54009 16.6663 10.0003 16.6663Z" stroke="#444444" stroke-width="2" stroke-linecap="round" stroke-linejoin="round"/>
</svg>
