<svg width="20" height="20" viewBox="0 0 20 20" fill="none" xmlns="http://www.w3.org/2000/svg">
<path d="M9.99996 10.8333C10.4602 10.8333 10.8333 10.4602 10.8333 10C10.8333 9.53977 10.4602 9.16668 9.99996 9.16668C9.53972 9.16668 9.16663 9.53977 9.16663 10C9.16663 10.4602 9.53972 10.8333 9.99996 10.8333Z" stroke="#444444" stroke-width="2" stroke-linecap="round" stroke-linejoin="round"/>
<path d="M9.99996 5.00001C10.4602 5.00001 10.8333 4.62691 10.8333 4.16668C10.8333 3.70644 10.4602 3.33334 9.99996 3.33334C9.53972 3.33334 9.16663 3.70644 9.16663 4.16668C9.16663 4.62691 9.53972 5.00001 9.99996 5.00001Z" stroke="#444444" stroke-width="2" stroke-linecap="round" stroke-linejoin="round"/>
<path d="M9.99996 16.6667C10.4602 16.6667 10.8333 16.2936 10.8333 15.8333C10.8333 15.3731 10.4602 15 9.99996 15C9.53972 15 9.16663 15.3731 9.16663 15.8333C9.16663 16.2936 9.53972 16.6667 9.99996 16.6667Z" stroke="#444444" stroke-width="2" stroke-linecap="round" stroke-linejoin="round"/>
</svg>
