<svg width="20" height="20" viewBox="0 0 20 20" fill="none" xmlns="http://www.w3.org/2000/svg">
<path d="M9.99935 10.8335C10.4596 10.8335 10.8327 10.4604 10.8327 10.0002C10.8327 9.53993 10.4596 9.16683 9.99935 9.16683C9.53911 9.16683 9.16602 9.53993 9.16602 10.0002C9.16602 10.4604 9.53911 10.8335 9.99935 10.8335Z" stroke="#444444" stroke-width="2" stroke-linecap="round" stroke-linejoin="round"/>
<path d="M9.99935 5.00016C10.4596 5.00016 10.8327 4.62707 10.8327 4.16683C10.8327 3.70659 10.4596 3.3335 9.99935 3.3335C9.53911 3.3335 9.16602 3.70659 9.16602 4.16683C9.16602 4.62707 9.53911 5.00016 9.99935 5.00016Z" stroke="#444444" stroke-width="2" stroke-linecap="round" stroke-linejoin="round"/>
<path d="M9.99935 16.6668C10.4596 16.6668 10.8327 16.2937 10.8327 15.8335C10.8327 15.3733 10.4596 15.0002 9.99935 15.0002C9.53911 15.0002 9.16602 15.3733 9.16602 15.8335C9.16602 16.2937 9.53911 16.6668 9.99935 16.6668Z" stroke="#444444" stroke-width="2" stroke-linecap="round" stroke-linejoin="round"/>
</svg>
