<svg width="43" height="43" viewBox="0 0 43 43" fill="none" xmlns="http://www.w3.org/2000/svg">
<path d="M19.6521 43V22.7591H19.5134C16.9078 22.7591 14.4106 22.2785 12.0218 21.3172C9.63296 20.3559 7.51565 18.9802 5.66986 17.1901C3.82407 15.4 2.41764 13.3377 1.45056 11.0031C0.483519 8.66858 0 6.23513 0 3.70278V0H3.79663C6.36961 0 8.84928 0.487497 11.2356 1.46249C13.622 2.43753 15.7371 3.8203 17.5809 5.61081C18.9751 6.96275 20.1213 8.4779 21.0194 10.1563C21.9176 11.8346 22.5449 13.6144 22.9013 15.4957C23.2394 14.9595 23.6065 14.4461 24.0025 13.9557C24.3986 13.4652 24.8363 12.9876 25.3157 12.5227C27.1634 10.7345 29.2871 9.35284 31.6867 8.3778C34.0864 7.40276 36.5877 6.91525 39.1907 6.91525H43V10.6181C43 13.1489 42.4982 15.5808 41.4946 17.9139C40.491 20.247 39.0695 22.3097 37.2299 24.102C35.3904 25.8944 33.2835 27.2606 30.9093 28.2006C28.5351 29.1406 26.0482 29.6107 23.4488 29.6107H23.3226V43H19.6521ZM19.6975 19.1274C19.6975 17.0398 19.2876 15.0489 18.4677 13.155C17.6478 11.261 16.4878 9.58494 14.9876 8.12666C13.4874 6.66837 11.7622 5.54401 9.81209 4.75358C7.86201 3.96314 5.81482 3.56793 3.6705 3.56793C3.6705 5.68454 4.06405 7.69527 4.85115 9.60012C5.63824 11.5049 6.7819 13.1865 8.2821 14.6448C9.8176 16.1373 11.5652 17.2576 13.5248 18.0055C15.4843 18.7535 17.5419 19.1274 19.6975 19.1274ZM23.3226 26.0427C25.4669 26.0427 27.5141 25.6602 29.4642 24.8951C31.4143 24.13 33.1395 23.0183 34.6397 21.56C36.1399 20.1018 37.2965 18.4202 38.1097 16.5154C38.9229 14.6106 39.3295 12.5998 39.3295 10.4832C37.152 10.4832 35.0835 10.8785 33.1239 11.6689C31.1643 12.4593 29.4344 13.5837 27.9342 15.042C26.4122 16.5215 25.263 18.2029 24.4869 20.0862C23.7107 21.9696 23.3226 23.9551 23.3226 26.0427Z" fill="#1E1E1E"/>
</svg>
