<svg width="40" height="40" viewBox="0 0 40 40" fill="none" xmlns="http://www.w3.org/2000/svg">
<path d="M28.3333 5C28.771 4.56227 29.2907 4.21503 29.8626 3.97813C30.4345 3.74123 31.0475 3.61929 31.6666 3.61929C32.2856 3.61929 32.8986 3.74123 33.4706 3.97813C34.0425 4.21503 34.5622 4.56227 34.9999 5C35.4377 5.43774 35.7849 5.95742 36.0218 6.52935C36.2587 7.10129 36.3806 7.71428 36.3806 8.33334C36.3806 8.9524 36.2587 9.56539 36.0218 10.1373C35.7849 10.7093 35.4377 11.2289 34.9999 11.6667L12.4999 34.1667L3.33325 36.6667L5.83325 27.5L28.3333 5Z" stroke="#1E1E1E" stroke-width="3.5" stroke-linecap="round" stroke-linejoin="round"/>
</svg>
