<svg width="32" height="32" viewBox="0 0 32 32" fill="none" xmlns="http://www.w3.org/2000/svg">
<path d="M4 8.00008H6.66667M6.66667 8.00008H28M6.66667 8.00008L6.66667 26.6667C6.66667 27.374 6.94762 28.0523 7.44772 28.5524C7.94781 29.0525 8.62609 29.3334 9.33333 29.3334H22.6667C23.3739 29.3334 24.0522 29.0525 24.5523 28.5524C25.0524 28.0523 25.3333 27.374 25.3333 26.6667V8.00008M10.6667 8.00008V5.33341C10.6667 4.62617 10.9476 3.94789 11.4477 3.4478C11.9478 2.9477 12.6261 2.66675 13.3333 2.66675H18.6667C19.3739 2.66675 20.0522 2.9477 20.5523 3.4478C21.0524 3.94789 21.3333 4.62617 21.3333 5.33341V8.00008" stroke="#1E1E1E" stroke-width="3" stroke-linecap="round" stroke-linejoin="round"/>
</svg>
