<svg width="20" height="20" viewBox="0 0 20 20" fill="none" xmlns="http://www.w3.org/2000/svg">
<path d="M4.16667 17.5H15.8333C16.7538 17.5 17.5 16.7538 17.5 15.8333V4.16667C17.5 3.24619 16.7538 2.5 15.8333 2.5H4.16667C3.24619 2.5 2.5 3.24619 2.5 4.16667V15.8333C2.5 16.7538 3.24619 17.5 4.16667 17.5ZM4.16667 17.5L13.3333 8.33333L17.5 12.5M8.33333 7.08333C8.33333 7.77369 7.77369 8.33333 7.08333 8.33333C6.39298 8.33333 5.83333 7.77369 5.83333 7.08333C5.83333 6.39298 6.39298 5.83333 7.08333 5.83333C7.77369 5.83333 8.33333 6.39298 8.33333 7.08333Z" stroke="#1E1E1E" stroke-width="2" stroke-linecap="round" stroke-linejoin="round"/>
</svg>
