<svg width="40" height="40" viewBox="0 0 40 40" fill="none" xmlns="http://www.w3.org/2000/svg">
<path d="M20.0002 21.6666C20.9206 21.6666 21.6668 20.9204 21.6668 20C21.6668 19.0795 20.9206 18.3333 20.0002 18.3333C19.0797 18.3333 18.3335 19.0795 18.3335 20C18.3335 20.9204 19.0797 21.6666 20.0002 21.6666Z" stroke="#1E1E1E" stroke-width="3.5" stroke-linecap="round" stroke-linejoin="round"/>
<path d="M20.0002 9.99996C20.9206 9.99996 21.6668 9.25377 21.6668 8.33329C21.6668 7.41282 20.9206 6.66663 20.0002 6.66663C19.0797 6.66663 18.3335 7.41282 18.3335 8.33329C18.3335 9.25377 19.0797 9.99996 20.0002 9.99996Z" stroke="#1E1E1E" stroke-width="3.5" stroke-linecap="round" stroke-linejoin="round"/>
<path d="M20.0002 33.3333C20.9206 33.3333 21.6668 32.5871 21.6668 31.6666C21.6668 30.7462 20.9206 30 20.0002 30C19.0797 30 18.3335 30.7462 18.3335 31.6666C18.3335 32.5871 19.0797 33.3333 20.0002 33.3333Z" stroke="#1E1E1E" stroke-width="3.5" stroke-linecap="round" stroke-linejoin="round"/>
</svg>
