<svg width="48" height="48" viewBox="0 0 48 48" fill="none" xmlns="http://www.w3.org/2000/svg">
<path d="M10 30H8C6.93913 30 5.92172 29.5786 5.17157 28.8284C4.42143 28.0783 4 27.0609 4 26V8C4 6.93913 4.42143 5.92172 5.17157 5.17157C5.92172 4.42143 6.93913 4 8 4H26C27.0609 4 28.0783 4.42143 28.8284 5.17157C29.5786 5.92172 30 6.93913 30 8V10M22 18H40C42.2091 18 44 19.7909 44 22V40C44 42.2091 42.2091 44 40 44H22C19.7909 44 18 42.2091 18 40V22C18 19.7909 19.7909 18 22 18Z" stroke="#1E1E1E" stroke-width="4" stroke-linecap="round" stroke-linejoin="round"/>
</svg>
