<svg width="32" height="32" viewBox="0 0 32 32" fill="none" xmlns="http://www.w3.org/2000/svg">
<path d="M22.6667 3.99999C23.0169 3.64979 23.4327 3.37201 23.8902 3.18248C24.3478 2.99296 24.8382 2.89542 25.3334 2.89542C25.8287 2.89542 26.3191 2.99296 26.7766 3.18248C27.2342 3.37201 27.6499 3.64979 28.0001 3.99999C28.3503 4.35018 28.6281 4.76592 28.8176 5.22346C29.0071 5.68101 29.1047 6.17141 29.1047 6.66665C29.1047 7.1619 29.0071 7.65229 28.8176 8.10984C28.6281 8.56739 28.3503 8.98313 28.0001 9.33332L10.0001 27.3333L2.66675 29.3333L4.66675 22L22.6667 3.99999Z" stroke="#1E1E1E" stroke-width="3" stroke-linecap="round" stroke-linejoin="round"/>
</svg>
