<svg width="20" height="20" viewBox="0 0 20 20" fill="none" xmlns="http://www.w3.org/2000/svg">
<path d="M2.5 5.00008H4.16667M4.16667 5.00008H17.5M4.16667 5.00008L4.16667 16.6667C4.16667 17.1088 4.34226 17.5327 4.65482 17.8453C4.96738 18.1578 5.39131 18.3334 5.83333 18.3334H14.1667C14.6087 18.3334 15.0326 18.1578 15.3452 17.8453C15.6577 17.5327 15.8333 17.1088 15.8333 16.6667V5.00008M6.66667 5.00008V3.33341C6.66667 2.89139 6.84226 2.46746 7.15482 2.1549C7.46738 1.84234 7.89131 1.66675 8.33333 1.66675H11.6667C12.1087 1.66675 12.5326 1.84234 12.8452 2.1549C13.1577 2.46746 13.3333 2.89139 13.3333 3.33341V5.00008" stroke="#1E1E1E" stroke-width="2" stroke-linecap="round" stroke-linejoin="round"/>
</svg>
