<svg width="40" height="40" viewBox="0 0 40 40" fill="none" xmlns="http://www.w3.org/2000/svg">
<path d="M8.3335 25H6.66683C5.78277 25 4.93493 24.6489 4.30981 24.0237C3.68469 23.3986 3.3335 22.5508 3.3335 21.6667V6.66671C3.3335 5.78265 3.68469 4.93481 4.30981 4.30968C4.93493 3.68456 5.78277 3.33337 6.66683 3.33337H21.6668C22.5509 3.33337 23.3987 3.68456 24.0239 4.30968C24.649 4.93481 25.0002 5.78265 25.0002 6.66671V8.33337M18.3335 15H33.3335C35.1744 15 36.6668 16.4924 36.6668 18.3334V33.3334C36.6668 35.1743 35.1744 36.6667 33.3335 36.6667H18.3335C16.4925 36.6667 15.0002 35.1743 15.0002 33.3334V18.3334C15.0002 16.4924 16.4925 15 18.3335 15Z" stroke="#1E1E1E" stroke-width="3.5" stroke-linecap="round" stroke-linejoin="round"/>
</svg>
