<svg width="313" height="39" viewBox="0 0 313 39" fill="none" xmlns="http://www.w3.org/2000/svg">
<path d="M13.6667 2H7.83333C6.28624 2 4.80251 2.61458 3.70854 3.70854C2.61458 4.80251 2 6.28624 2 7.83333C2 9.38043 2.61458 10.8642 3.70854 11.9581C4.80251 13.0521 6.28624 13.6667 7.83333 13.6667M13.6667 2V13.6667M13.6667 2H19.5C20.266 2 21.0246 2.15088 21.7323 2.44404C22.4401 2.73719 23.0831 3.16687 23.6248 3.70854C24.1665 4.25022 24.5961 4.89328 24.8893 5.60101C25.1824 6.30875 25.3333 7.06729 25.3333 7.83333C25.3333 8.59938 25.1824 9.35792 24.8893 10.0657C24.5961 10.7734 24.1665 11.4164 23.6248 11.9581C23.0831 12.4998 22.4401 12.9295 21.7323 13.2226C21.0246 13.5158 20.266 13.6667 19.5 13.6667M13.6667 13.6667H7.83333M13.6667 13.6667H19.5M13.6667 13.6667V25.3333M7.83333 13.6667C6.28624 13.6667 4.80251 14.2812 3.70854 15.3752C2.61458 16.4692 2 17.9529 2 19.5C2 21.0471 2.61458 22.5308 3.70854 23.6248C4.80251 24.7188 6.28624 25.3333 7.83333 25.3333M19.5 13.6667C18.734 13.6667 17.9754 13.8175 17.2677 14.1107C16.5599 14.4039 15.9169 14.8335 15.3752 15.3752C14.8335 15.9169 14.4039 16.5599 14.1107 17.2677C13.8175 17.9754 13.6667 18.734 13.6667 19.5C13.6667 20.266 13.8175 21.0246 14.1107 21.7323C14.4039 22.4401 14.8335 23.0831 15.3752 23.6248C15.9169 24.1665 16.5599 24.5961 17.2677 24.8893C17.9754 25.1824 18.734 25.3333 19.5 25.3333C20.266 25.3333 21.0246 25.1824 21.7323 24.8893C22.4401 24.5961 23.0831 24.1665 23.6248 23.6248C24.1665 23.0831 24.5961 22.4401 24.8893 21.7323C25.1824 21.0246 25.3333 20.266 25.3333 19.5C25.3333 18.734 25.1824 17.9754 24.8893 17.2677C24.5961 16.5599 24.1665 15.9169 23.6248 15.3752C23.0831 14.8335 22.4401 14.4039 21.7323 14.1107C21.0246 13.8175 20.266 13.6667 19.5 13.6667ZM7.83333 25.3333C6.28624 25.3333 4.80251 25.9479 3.70854 27.0419C2.61458 28.1358 2 29.6196 2 31.1667C2 32.7138 2.61458 34.1975 3.70854 35.2915C4.80251 36.3854 6.28624 37 7.83333 37C9.38043 37 10.8642 36.3854 11.9581 35.2915C13.0521 34.1975 13.6667 32.7138 13.6667 31.1667V25.3333M7.83333 25.3333H13.6667" stroke="#1E1E1E" stroke-width="3.5" stroke-linecap="round" stroke-linejoin="round"/>
<path d="M183.294 17.6635L192.222 7.5H190.107L182.351 16.323L176.161 7.5H169.02L178.383 20.8433L169.02 31.5H171.135L179.32 22.1806L185.859 31.5H193M171.898 9.0619H175.148L190.106 30.0148H186.856" fill="#1E1E1E"/>
<g clip-path="url(#clip0_321_11074)">
<path d="M221 9.663C224.204 9.663 224.584 9.675 225.85 9.733C229.102 9.881 230.621 11.424 230.769 14.652C230.827 15.917 230.838 16.297 230.838 19.501C230.838 22.706 230.826 23.085 230.769 24.35C230.62 27.575 229.105 29.121 225.85 29.269C224.584 29.327 224.206 29.339 221 29.339C217.796 29.339 217.416 29.327 216.151 29.269C212.891 29.12 211.38 27.57 211.232 24.349C211.174 23.084 211.162 22.705 211.162 19.5C211.162 16.296 211.175 15.917 211.232 14.651C211.381 11.424 212.896 9.88 216.151 9.732C217.417 9.675 217.796 9.663 221 9.663ZM221 7.5C217.741 7.5 217.333 7.514 216.053 7.572C211.695 7.772 209.273 10.19 209.073 14.552C209.014 15.833 209 16.241 209 19.5C209 22.759 209.014 23.168 209.072 24.448C209.272 28.806 211.69 31.228 216.052 31.428C217.333 31.486 217.741 31.5 221 31.5C224.259 31.5 224.668 31.486 225.948 31.428C230.302 31.228 232.73 28.81 232.927 24.448C232.986 23.168 233 22.759 233 19.5C233 16.241 232.986 15.833 232.928 14.553C232.732 10.199 230.311 7.773 225.949 7.573C224.668 7.514 224.259 7.5 221 7.5ZM221 13.338C217.597 13.338 214.838 16.097 214.838 19.5C214.838 22.903 217.597 25.663 221 25.663C224.403 25.663 227.162 22.904 227.162 19.5C227.162 16.097 224.403 13.338 221 13.338ZM221 23.5C218.791 23.5 217 21.71 217 19.5C217 17.291 218.791 15.5 221 15.5C223.209 15.5 225 17.291 225 19.5C225 21.71 223.209 23.5 221 23.5ZM227.406 11.655C226.61 11.655 225.965 12.3 225.965 13.095C225.965 13.89 226.61 14.535 227.406 14.535C228.201 14.535 228.845 13.89 228.845 13.095C228.845 12.3 228.201 11.655 227.406 11.655Z" fill="#1E1E1E"/>
</g>
<g clip-path="url(#clip1_321_11074)">
<path d="M268.615 10.684C265.011 10.438 256.984 10.439 253.385 10.684C249.488 10.95 249.029 13.304 249 19.5C249.029 25.685 249.484 28.049 253.385 28.316C256.985 28.561 265.011 28.562 268.615 28.316C272.512 28.05 272.971 25.696 273 19.5C272.971 13.315 272.516 10.951 268.615 10.684ZM258 23.5V15.5L266 19.493L258 23.5Z" fill="#1E1E1E"/>
</g>
<g clip-path="url(#clip2_321_11074)">
<path d="M308 7.5H294C291.239 7.5 289 9.739 289 12.5V26.5C289 29.261 291.239 31.5 294 31.5H308C310.762 31.5 313 29.261 313 26.5V12.5C313 9.739 310.762 7.5 308 7.5ZM297 26.5H294V15.5H297V26.5ZM295.5 14.232C294.534 14.232 293.75 13.442 293.75 12.468C293.75 11.494 294.534 10.704 295.5 10.704C296.466 10.704 297.25 11.494 297.25 12.468C297.25 13.442 296.467 14.232 295.5 14.232ZM309 26.5H306V20.896C306 17.528 302 17.783 302 20.896V26.5H299V15.5H302V17.265C303.396 14.679 309 14.488 309 19.741V26.5Z" fill="#1E1E1E"/>
</g>
<defs>
<clipPath id="clip0_321_11074">
<rect width="24" height="24" fill="white" transform="translate(209 7.5)"/>
</clipPath>
<clipPath id="clip1_321_11074">
<rect width="24" height="24" fill="white" transform="translate(249 7.5)"/>
</clipPath>
<clipPath id="clip2_321_11074">
<rect width="24" height="24" fill="white" transform="translate(289 7.5)"/>
</clipPath>
</defs>
</svg>
