<svg width="104" height="24" viewBox="0 0 104 24" fill="none" xmlns="http://www.w3.org/2000/svg">
<g clip-path="url(#clip0_34_23392)">
<path d="M12 2.163C15.204 2.163 15.584 2.175 16.85 2.233C20.102 2.381 21.621 3.924 21.769 7.152C21.827 8.417 21.838 8.797 21.838 12.001C21.838 15.206 21.826 15.585 21.769 16.85C21.62 20.075 20.105 21.621 16.85 21.769C15.584 21.827 15.206 21.839 12 21.839C8.796 21.839 8.416 21.827 7.151 21.769C3.891 21.62 2.38 20.07 2.232 16.849C2.174 15.584 2.162 15.205 2.162 12C2.162 8.796 2.175 8.417 2.232 7.151C2.381 3.924 3.896 2.38 7.151 2.232C8.417 2.175 8.796 2.163 12 2.163ZM12 0C8.741 0 8.333 0.014 7.053 0.072C2.695 0.272 0.273 2.69 0.073 7.052C0.014 8.333 0 8.741 0 12C0 15.259 0.014 15.668 0.072 16.948C0.272 21.306 2.69 23.728 7.052 23.928C8.333 23.986 8.741 24 12 24C15.259 24 15.668 23.986 16.948 23.928C21.302 23.728 23.73 21.31 23.927 16.948C23.986 15.668 24 15.259 24 12C24 8.741 23.986 8.333 23.928 7.053C23.732 2.699 21.311 0.273 16.949 0.073C15.668 0.014 15.259 0 12 0ZM12 5.838C8.597 5.838 5.838 8.597 5.838 12C5.838 15.403 8.597 18.163 12 18.163C15.403 18.163 18.162 15.404 18.162 12C18.162 8.597 15.403 5.838 12 5.838ZM12 16C9.791 16 8 14.21 8 12C8 9.791 9.791 8 12 8C14.209 8 16 9.791 16 12C16 14.21 14.209 16 12 16ZM18.406 4.155C17.61 4.155 16.965 4.8 16.965 5.595C16.965 6.39 17.61 7.035 18.406 7.035C19.201 7.035 19.845 6.39 19.845 5.595C19.845 4.8 19.201 4.155 18.406 4.155Z" fill="#1E1E1E"/>
</g>
<g clip-path="url(#clip1_34_23392)">
<path d="M59.615 3.18388C56.011 2.93788 47.984 2.93888 44.385 3.18388C40.488 3.44988 40.029 5.80388 40 11.9999C40.029 18.1849 40.484 20.5489 44.385 20.8159C47.985 21.0609 56.011 21.0619 59.615 20.8159C63.512 20.5499 63.971 18.1959 64 11.9999C63.971 5.81488 63.516 3.45088 59.615 3.18388ZM49 15.9999V7.99988L57 11.9929L49 15.9999Z" fill="#1E1E1E"/>
</g>
<g clip-path="url(#clip2_34_23392)">
<path d="M99 0H85C82.239 0 80 2.239 80 5V19C80 21.761 82.239 24 85 24H99C101.762 24 104 21.761 104 19V5C104 2.239 101.762 0 99 0ZM88 19H85V8H88V19ZM86.5 6.732C85.534 6.732 84.75 5.942 84.75 4.968C84.75 3.994 85.534 3.204 86.5 3.204C87.466 3.204 88.25 3.994 88.25 4.968C88.25 5.942 87.467 6.732 86.5 6.732ZM100 19H97V13.396C97 10.028 93 10.283 93 13.396V19H90V8H93V9.765C94.396 7.179 100 6.988 100 12.241V19Z" fill="#1E1E1E"/>
</g>
<defs>
<clipPath id="clip0_34_23392">
<rect width="24" height="24" fill="white"/>
</clipPath>
<clipPath id="clip1_34_23392">
<rect width="24" height="24" fill="white" transform="translate(40)"/>
</clipPath>
<clipPath id="clip2_34_23392">
<rect width="24" height="24" fill="white" transform="translate(80)"/>
</clipPath>
</defs>
</svg>
