<svg width="1016" height="81" viewBox="0 0 1016 81" fill="none" xmlns="http://www.w3.org/2000/svg">
<path d="M1.35864 80.139L57.8255 80.139L192.125 80.1392L260.649 73.1154C260.75 73.105 260.848 73.0794 260.941 73.0394L304.988 54.1241C305.035 54.1038 305.081 54.0798 305.124 54.0524L343.087 30.2382C343.17 30.1864 343.26 30.1469 343.354 30.121L407.31 12.5618L482.018 1.66142C482.066 1.65445 482.114 1.65094 482.163 1.65094L564.501 1.65094L640.808 6.22647L707.807 19.5711C707.907 19.591 708.003 19.626 708.092 19.6748L756.794 46.3506L799.336 72.9815C799.461 73.0594 799.601 73.109 799.746 73.1266L857.518 80.1392L1014.71 80.139" stroke="#44CB1B" stroke-width="1.5" stroke-linecap="round" stroke-linejoin="round"/>
</svg>
